<svg width="18" height="17" viewBox="0 0 18 17" fill="none" xmlns="http://www.w3.org/2000/svg">
<path d="M2.18182 0C1.60316 0 1.04821 0.229869 0.63904 0.63904C0.229869 1.04821 0 1.60316 0 2.18182V10.9091C0 11.4877 0.229869 12.0427 0.63904 12.4519C1.04821 12.861 1.60316 13.0909 2.18182 13.0909H10.3636V12.3589C10.2703 12.2433 10.1822 12.1236 10.0996 12H2.18182C1.89249 12 1.61501 11.8851 1.41043 11.6805C1.20584 11.4759 1.09091 11.1984 1.09091 10.9091V2.18182C1.09091 1.89249 1.20584 1.61501 1.41043 1.41043C1.61501 1.20584 1.89249 1.09091 2.18182 1.09091H15.2727C15.5621 1.09091 15.8395 1.20584 16.0441 1.41043C16.2487 1.61501 16.3636 1.89249 16.3636 2.18182V4.87418C16.7607 5.07055 17.1273 5.32145 17.4545 5.61382V2.18182C17.4545 1.60316 17.2247 1.04821 16.8155 0.63904C16.4063 0.229869 15.8514 0 15.2727 0H2.18182Z" fill="#808080"/>
<path d="M18.0001 9.27228C18.0001 10.2849 17.5978 11.2561 16.8818 11.9721C16.1657 12.6882 15.1945 13.0905 14.1819 13.0905C13.1692 13.0905 12.1981 12.6882 11.482 11.9721C10.766 11.2561 10.3637 10.2849 10.3637 9.27228C10.3637 8.25964 10.766 7.28847 11.482 6.57242C12.1981 5.85637 13.1692 5.4541 14.1819 5.4541C15.1945 5.4541 16.1657 5.85637 16.8818 6.57242C17.5978 7.28847 18.0001 8.25964 18.0001 9.27228Z" fill="#808080"/>
<path d="M14.182 14.1814C15.1911 14.1814 16.1293 13.8759 16.9093 13.3545V16.3632C16.9093 16.4645 16.8811 16.5638 16.8279 16.65C16.7746 16.7362 16.6984 16.8058 16.6078 16.8511C16.5172 16.8964 16.4158 16.9156 16.3149 16.9065C16.214 16.8974 16.1176 16.8604 16.0366 16.7996L14.5093 15.6541C14.4149 15.5833 14.3001 15.545 14.182 15.545C14.064 15.545 13.9492 15.5833 13.8548 15.6541L12.3275 16.7996C12.2465 16.8604 12.1501 16.8974 12.0492 16.9065C11.9483 16.9156 11.8469 16.8964 11.7563 16.8511C11.6657 16.8058 11.5895 16.7362 11.5362 16.65C11.483 16.5638 11.4548 16.4645 11.4548 16.3632V13.3545C12.2615 13.8951 13.211 14.183 14.182 14.1814Z" fill="#808080"/>
<path d="M3.27271 3.81792C3.27271 3.67325 3.33017 3.53451 3.43247 3.43222C3.53476 3.32993 3.6735 3.27246 3.81816 3.27246H13.6363C13.781 3.27246 13.9197 3.32993 14.022 3.43222C14.1243 3.53451 14.1818 3.67325 14.1818 3.81792C14.1818 3.96258 14.1243 4.10132 14.022 4.20361C13.9197 4.3059 13.781 4.36337 13.6363 4.36337H3.81816C3.6735 4.36337 3.53476 4.3059 3.43247 4.20361C3.33017 4.10132 3.27271 3.96258 3.27271 3.81792Z" fill="#808080"/>
<path d="M3.81816 8.72656C3.6735 8.72656 3.53476 8.78403 3.43247 8.88632C3.33017 8.98861 3.27271 9.12735 3.27271 9.27202C3.27271 9.41668 3.33017 9.55542 3.43247 9.65771C3.53476 9.76 3.6735 9.81747 3.81816 9.81747H8.1818C8.32646 9.81747 8.4652 9.76 8.56749 9.65771C8.66978 9.55542 8.72725 9.41668 8.72725 9.27202C8.72725 9.12735 8.66978 8.98861 8.56749 8.88632C8.4652 8.78403 8.32646 8.72656 8.1818 8.72656H3.81816Z" fill="#808080"/>
</svg>
