<svg width="18" height="17" viewBox="0 0 18 17" fill="none" xmlns="http://www.w3.org/2000/svg">
<path d="M9.74356 8.99959C10.3403 8.99959 10.9125 9.23663 11.3345 9.65857C11.7564 10.0805 11.9935 10.6528 11.9935 11.2495L11.992 12.3714C12.1464 15.1268 10.024 16.5007 6.08972 16.5007C2.1689 16.4992 0 15.1448 0 12.4119V11.2495C0 10.6528 0.237042 10.0805 0.65898 9.65857C1.08092 9.23663 1.65319 8.99959 2.2499 8.99959H9.74356ZM15.7433 8.99959C16.34 8.99959 16.9123 9.23663 17.3342 9.65857C17.7561 10.0805 17.9932 10.6528 17.9932 11.2495V12.04C18.1282 14.5103 16.2533 15.7493 12.8274 15.7493C12.3624 15.7493 11.9245 15.7268 11.5165 15.6818C12.3204 14.9378 12.7509 13.9299 12.7494 12.6549L12.7404 12.3294L12.7434 11.2495C12.7434 10.3525 12.3504 9.54856 11.7265 8.99959H15.7433ZM5.99973 0C6.99424 0 7.94803 0.39507 8.65126 1.0983C9.35449 1.80153 9.74956 2.75531 9.74956 3.74983C9.74956 4.74435 9.35449 5.69813 8.65126 6.40136C7.94803 7.10459 6.99424 7.49966 5.99973 7.49966C5.00521 7.49966 4.05143 7.10459 3.3482 6.40136C2.64497 5.69813 2.2499 4.74435 2.2499 3.74983C2.2499 2.75531 2.64497 1.80153 3.3482 1.0983C4.05143 0.39507 5.00521 0 5.99973 0ZM13.4994 1.49993C14.295 1.49993 15.058 1.81599 15.6206 2.37857C16.1832 2.94115 16.4993 3.70418 16.4993 4.49979C16.4993 5.29541 16.1832 6.05844 15.6206 6.62102C15.058 7.1836 14.295 7.49966 13.4994 7.49966C12.7038 7.49966 11.9407 7.1836 11.3782 6.62102C10.8156 6.05844 10.4995 5.29541 10.4995 4.49979C10.4995 3.70418 10.8156 2.94115 11.3782 2.37857C11.9407 1.81599 12.7038 1.49993 13.4994 1.49993Z" fill="#808080"/>
</svg>
