<svg width="18" height="21" viewBox="0 0 18 21" fill="none" xmlns="http://www.w3.org/2000/svg">
<path d="M4.2 6C4.04087 6 3.88826 6.06321 3.77574 6.17574C3.66321 6.28826 3.6 6.44087 3.6 6.6C3.6 6.75913 3.66321 6.91174 3.77574 7.02426C3.88826 7.13679 4.04087 7.2 4.2 7.2H10.2C10.3591 7.2 10.5117 7.13679 10.6243 7.02426C10.7368 6.91174 10.8 6.75913 10.8 6.6C10.8 6.44087 10.7368 6.28826 10.6243 6.17574C10.5117 6.06321 10.3591 6 10.2 6H4.2ZM3.6 10.2C3.6 10.0409 3.66321 9.88826 3.77574 9.77573C3.88826 9.66321 4.04087 9.6 4.2 9.6H9.804C9.672 9.9756 9.6 10.38 9.6 10.8H4.2C4.04087 10.8 3.88826 10.7368 3.77574 10.6243C3.66321 10.5117 3.6 10.3591 3.6 10.2ZM13.2 3V7.2C13.62 7.2 14.0244 7.272 14.4 7.4052V3C14.4 2.52261 14.2104 2.06477 13.8728 1.72721C13.5352 1.38964 13.0774 1.2 12.6 1.2H12V0.6C12 0.44087 11.9368 0.288258 11.8243 0.175736C11.7117 0.0632142 11.5591 0 11.4 0C11.2409 0 11.0883 0.0632142 10.9757 0.175736C10.8632 0.288258 10.8 0.44087 10.8 0.6V1.2H7.8V0.6C7.8 0.44087 7.73679 0.288258 7.62426 0.175736C7.51174 0.0632142 7.35913 0 7.2 0C7.04087 0 6.88826 0.0632142 6.77574 0.175736C6.66321 0.288258 6.6 0.44087 6.6 0.6V1.2H3.6V0.6C3.6 0.44087 3.53679 0.288258 3.42426 0.175736C3.31174 0.0632142 3.15913 0 3 0C2.84087 0 2.68826 0.0632142 2.57574 0.175736C2.46321 0.288258 2.4 0.44087 2.4 0.6V1.2H1.8C1.32261 1.2 0.864773 1.38964 0.527208 1.72721C0.189642 2.06477 0 2.52261 0 3V17.4C0 17.8774 0.189642 18.3352 0.527208 18.6728C0.864773 19.0104 1.32261 19.2 1.8 19.2H8.1C7.84447 18.8294 7.6406 18.4256 7.494 18H1.8C1.64087 18 1.48826 17.9368 1.37574 17.8243C1.26321 17.7117 1.2 17.5591 1.2 17.4V3C1.2 2.84087 1.26321 2.68826 1.37574 2.57574C1.48826 2.46321 1.64087 2.4 1.8 2.4H12.6C12.7591 2.4 12.9117 2.46321 13.0243 2.57574C13.1368 2.68826 13.2 2.84087 13.2 3ZM4.2 13.2C4.04087 13.2 3.88826 13.2632 3.77574 13.3757C3.66321 13.4883 3.6 13.6409 3.6 13.8C3.6 13.9591 3.66321 14.1117 3.77574 14.2243C3.88826 14.3368 4.04087 14.4 4.2 14.4H6.6C6.75913 14.4 6.91174 14.3368 7.02426 14.2243C7.13679 14.1117 7.2 13.9591 7.2 13.8C7.2 13.6409 7.13679 13.4883 7.02426 13.3757C6.91174 13.2632 6.75913 13.2 6.6 13.2H4.2ZM15.6 10.8C15.6103 10.4786 15.556 10.1584 15.4401 9.85844C15.3243 9.55847 15.1494 9.28483 14.9257 9.05377C14.7021 8.82272 14.4343 8.63896 14.1383 8.51341C13.8422 8.38786 13.524 8.32309 13.2024 8.32292C12.8809 8.32276 12.5626 8.38722 12.2664 8.51247C11.9702 8.63773 11.7023 8.82122 11.4784 9.05205C11.2545 9.28288 11.0793 9.55634 10.9632 9.8562C10.8471 10.1561 10.7924 10.4762 10.8024 10.7976C10.8218 11.4207 11.0829 12.0118 11.5304 12.4458C11.9779 12.8798 12.5767 13.1226 13.2 13.1229C13.8234 13.1232 14.4225 12.881 14.8704 12.4474C15.3183 12.0139 15.58 11.4231 15.6 10.8ZM8.4 16.2C8.4 16.4064 8.412 16.6068 8.4384 16.8C8.5569 17.7997 9.0659 18.7121 9.8544 19.338C10.7436 20.052 11.9364 20.4 13.2 20.4C14.4636 20.4 15.6564 20.052 16.5456 19.338C17.448 18.612 18 17.5392 18 16.2C18 15.7226 17.8104 15.2648 17.4728 14.9272C17.1352 14.5896 16.6774 14.4 16.2 14.4H10.2C9.72261 14.4 9.26477 14.5896 8.92721 14.9272C8.58964 15.2648 8.4 15.7226 8.4 16.2Z" fill="#808080"/>
</svg>
