<svg width="18" height="18" viewBox="0 0 18 18" fill="none" xmlns="http://www.w3.org/2000/svg">
<path d="M1.80002 14.3418H3.60003V18L8.19097 14.3418H12.6001C13.5928 14.3418 14.4001 13.5377 14.4001 12.549V5.37776C14.4001 4.38903 13.5928 3.58496 12.6001 3.58496H1.80002C0.807307 3.58496 0 4.38903 0 5.37776V12.549C0 13.5377 0.807307 14.3418 1.80002 14.3418Z" fill="#808080"/>
<path d="M16.2 0H5.39987C4.40716 0 3.59985 0.804072 3.59985 1.7928H14.3999C15.3927 1.7928 16.2 2.59687 16.2 3.58561V10.7568C17.1927 10.7568 18 9.95275 18 8.96402V1.7928C18 0.804072 17.1927 0 16.2 0Z" fill="#808080"/>
</svg>
