<svg width="18" height="19" viewBox="0 0 18 19" fill="none" xmlns="http://www.w3.org/2000/svg">
<path d="M5.95202 17.9978C5.5129 17.9952 5.08652 17.8499 4.73717 17.5838L2.87441 16.198C2.44454 15.8628 2.15932 15.3758 2.07731 14.8369C1.99531 14.298 2.12275 13.7482 2.43346 13.3003C2.59786 13.0576 2.70234 12.7793 2.73832 12.4883C2.7743 12.1974 2.74075 11.902 2.64044 11.6265L2.58644 11.4826C2.51659 11.2332 2.38893 11.0039 2.21381 10.8131C2.03869 10.6223 1.82105 10.4756 1.57857 10.3847H1.43459C0.908937 10.2079 0.474236 9.83096 0.224877 9.33561C-0.0244827 8.84027 -0.0683668 8.26655 0.102754 7.73903L0.840662 5.39933C0.908589 5.12824 1.03365 4.87481 1.20747 4.65598C1.38129 4.43715 1.59986 4.25799 1.84854 4.13048C2.08012 4.01116 2.33351 3.94007 2.59337 3.9215C2.85323 3.90294 3.11415 3.9373 3.36035 4.0225C3.62841 4.11271 3.91445 4.1361 4.1936 4.09062C4.47276 4.04514 4.73658 3.93217 4.96215 3.76153L5.07913 3.67154C5.28331 3.50862 5.44833 3.30196 5.56202 3.06679C5.67572 2.83161 5.73519 2.57392 5.73605 2.31271V2.09674C5.73363 1.54612 5.94883 1.01685 6.33479 0.624147C6.72075 0.231444 7.24622 0.00711475 7.79679 0H10.0915C10.3594 0.000721882 10.6245 0.054357 10.8716 0.157825C11.1187 0.261293 11.3429 0.412555 11.5313 0.602925C11.9275 1.00589 12.1476 1.54963 12.1432 2.11474V2.3667C12.1387 2.61485 12.1925 2.86059 12.3004 3.08412C12.4082 3.30765 12.5671 3.5027 12.7642 3.65354L12.8632 3.72553C13.0651 3.87699 13.3007 3.97736 13.5499 4.0181C13.799 4.05884 14.0543 4.03874 14.294 3.95951L14.5999 3.86052C14.8592 3.77459 15.133 3.74175 15.4052 3.76396C15.6774 3.78616 15.9424 3.86296 16.1842 3.98978C16.4261 4.11659 16.6399 4.29082 16.813 4.50207C16.9861 4.71332 17.1149 4.95726 17.1916 5.21935L17.9025 7.48706C18.067 8.01115 18.0221 8.57859 17.7771 9.07023C17.5321 9.56187 17.1062 9.93947 16.5887 10.1237L16.4087 10.1867C16.144 10.2734 15.9046 10.4238 15.7116 10.6246C15.5186 10.8255 15.3779 11.0706 15.3019 11.3386C15.2302 11.5877 15.2132 11.8493 15.2521 12.1056C15.2909 12.3618 15.3846 12.6067 15.5268 12.8234L15.7608 13.1654C16.0711 13.6157 16.1973 14.1677 16.1137 14.7081C16.03 15.2486 15.7428 15.7365 15.3109 16.072L13.5021 17.4668C13.2836 17.6339 13.0331 17.7546 12.7662 17.8212C12.4993 17.8879 12.2216 17.8993 11.9502 17.8546C11.6787 17.8099 11.4193 17.7102 11.1879 17.5615C10.9564 17.4127 10.7579 17.2182 10.6044 16.9899L10.4965 16.8369C10.3491 16.6154 10.148 16.4349 9.91193 16.3121C9.67588 16.1894 9.41259 16.1284 9.14662 16.135C8.89283 16.1416 8.64414 16.2077 8.42061 16.3281C8.19708 16.4484 8.00497 16.6196 7.85978 16.8279L7.65281 17.1249C7.49933 17.3548 7.30038 17.5509 7.06823 17.701C6.83608 17.8511 6.57565 17.9521 6.30298 17.9978C6.18627 18.0092 6.06873 18.0092 5.95202 17.9978ZM2.1635 8.65692C2.67165 8.83812 3.13018 9.13608 3.50217 9.52683C3.87416 9.91757 4.14922 10.3902 4.30523 10.9066V11.0146C4.49955 11.5515 4.56335 12.1269 4.49137 12.6934C4.4194 13.2598 4.2137 13.801 3.89128 14.2722C3.83437 14.3351 3.80285 14.4169 3.80285 14.5017C3.80285 14.5865 3.83437 14.6683 3.89128 14.7312L5.82604 16.198C5.85128 16.2178 5.88047 16.232 5.91166 16.2396C5.94284 16.2472 5.97529 16.2481 6.00683 16.2421C6.03836 16.2361 6.06826 16.2235 6.09451 16.205C6.12075 16.1865 6.14274 16.1627 6.159 16.135L6.36597 15.838C6.67813 15.387 7.09501 15.0183 7.58087 14.7637C8.06673 14.5091 8.60709 14.3761 9.15562 14.3761C9.70416 14.3761 10.2445 14.5091 10.7304 14.7637C11.2162 15.0183 11.6331 15.387 11.9453 15.838L12.0533 16C12.0919 16.0549 12.1497 16.0934 12.2152 16.108C12.2453 16.1124 12.2759 16.1107 12.3053 16.103C12.3347 16.0953 12.3622 16.0817 12.3862 16.063L14.24 14.6592C14.3049 14.6077 14.3476 14.5333 14.3593 14.4512C14.371 14.3692 14.3509 14.2858 14.303 14.2182L14.069 13.8763C13.7641 13.4317 13.563 12.9244 13.4805 12.3917C13.3979 11.859 13.4361 11.3146 13.5921 10.7987C13.7502 10.2564 14.0363 9.75997 14.4262 9.35124C14.8161 8.94252 15.2985 8.63342 15.8328 8.44994L16.0128 8.38695C16.0878 8.3569 16.1479 8.29841 16.1799 8.22423C16.2119 8.15004 16.2133 8.0662 16.1837 7.991L15.4818 5.75028C15.465 5.71108 15.4403 5.6757 15.4094 5.64631C15.3785 5.61692 15.3419 5.59412 15.3019 5.5793C15.2754 5.56586 15.2461 5.55886 15.2164 5.55886C15.1867 5.55886 15.1574 5.56586 15.1309 5.5793L14.8249 5.67829C14.3073 5.84911 13.756 5.89167 13.2184 5.80233C12.6807 5.71298 12.1728 5.49439 11.7383 5.16535L11.7023 5.08436C11.2854 4.76861 10.9473 4.36051 10.7147 3.89209C10.482 3.42368 10.3611 2.90771 10.3615 2.3847V2.10574C10.3631 2.019 10.3308 1.93506 10.2715 1.87177C10.2197 1.82498 10.1523 1.79929 10.0825 1.79978H7.79679C7.76013 1.80206 7.72428 1.81157 7.69131 1.82775C7.65833 1.84393 7.62887 1.86646 7.60462 1.89405C7.58038 1.92164 7.56182 1.95375 7.55001 1.98853C7.53821 2.02332 7.53338 2.06009 7.53583 2.09674V2.32171C7.53588 2.85898 7.41258 3.38909 7.17544 3.87118C6.93829 4.35328 6.59362 4.77449 6.168 5.10236L6.05101 5.19235C5.59182 5.54196 5.05369 5.77326 4.48403 5.86584C3.91438 5.95843 3.33069 5.90947 2.78442 5.72328C2.74354 5.70957 2.69931 5.70957 2.65843 5.72328C2.60765 5.75414 2.5694 5.80195 2.55045 5.85827L1.80354 8.20697C1.77751 8.28697 1.78361 8.37395 1.82055 8.44953C1.8575 8.5251 1.9224 8.58334 2.00152 8.61192L2.1635 8.65692Z" fill="#808080"/>
<path d="M9.00276 12.1488C8.37982 12.1488 7.77088 11.9641 7.25293 11.618C6.73498 11.2719 6.33129 10.78 6.0929 10.2045C5.85451 9.629 5.79214 8.99572 5.91367 8.38476C6.0352 7.7738 6.33517 7.21259 6.77565 6.77211C7.21613 6.33163 7.77734 6.03166 8.3883 5.91013C8.99926 5.7886 9.63254 5.85097 10.2081 6.08936C10.7836 6.32775 11.2755 6.73144 11.6216 7.24939C11.9676 7.76734 12.1524 8.37628 12.1524 8.99922C12.1524 9.83455 11.8205 10.6357 11.2299 11.2263C10.6392 11.817 9.83809 12.1488 9.00276 12.1488ZM9.00276 7.64939C8.73579 7.64939 8.47481 7.72855 8.25283 7.87687C8.03085 8.02519 7.85784 8.23601 7.75568 8.48266C7.65351 8.72931 7.62678 9.00072 7.67886 9.26256C7.73095 9.5244 7.85951 9.76492 8.04828 9.95369C8.23706 10.1425 8.47758 10.271 8.73942 10.3231C9.00126 10.3752 9.27267 10.3485 9.51932 10.2463C9.76597 10.1441 9.97678 9.97112 10.1251 9.74914C10.2734 9.52716 10.3526 9.26619 10.3526 8.99922C10.3526 8.64122 10.2104 8.29788 9.95723 8.04474C9.70409 7.7916 9.36076 7.64939 9.00276 7.64939Z" fill="#808080"/>
</svg>
