<svg width="18" height="19" viewBox="0 0 18 19" fill="none" xmlns="http://www.w3.org/2000/svg">
<path d="M16.1995 9.62303H8.87698V2.30056C8.87698 2.21056 8.80335 2.13693 8.71335 2.13693H8.18155C7.10711 2.13517 6.04292 2.34588 5.05022 2.75693C4.05751 3.16798 3.15588 3.77127 2.3972 4.53207C1.65004 5.27692 1.05471 6.15984 0.644308 7.13176C0.217243 8.1398 -0.00190063 9.22369 1.24178e-05 10.3185C-0.00174699 11.3929 0.208961 12.4571 0.620013 13.4498C1.03107 14.4425 1.63435 15.3441 2.39516 16.1028C3.14581 16.8535 4.02124 17.4446 4.99484 17.8557C6.00288 18.2828 7.08677 18.5019 8.18155 18.5C9.25599 18.5018 10.3202 18.2911 11.3129 17.88C12.3056 17.469 13.2072 16.8657 13.9659 16.1049C14.7166 15.3542 15.3077 14.4788 15.7188 13.5052C16.1459 12.4971 16.365 11.4132 16.3631 10.3185V9.78667C16.3631 9.69667 16.2895 9.62303 16.1995 9.62303ZM12.9616 15.1415C12.3283 15.7699 11.5771 16.2672 10.7513 16.6048C9.9254 16.9425 9.04103 17.1138 8.14882 17.1091C6.34684 17.101 4.65326 16.3953 3.37899 15.121C2.09653 13.8386 1.39087 12.1327 1.39087 10.3185C1.39087 8.50421 2.09653 6.79836 3.37899 5.5159C4.49577 4.39912 5.93367 3.71801 7.48612 3.56256V11.0139H14.9375C14.78 12.5745 14.0927 14.0206 12.9616 15.1415ZM17.9994 8.4858L17.9462 7.909C17.7724 6.0252 16.9358 4.24777 15.5899 2.90599C14.2431 1.56176 12.4693 0.729838 10.5746 0.553801L9.99581 0.500621C9.89967 0.49244 9.81786 0.566074 9.81786 0.662207V8.51853C9.81786 8.60852 9.89149 8.68216 9.98149 8.68216L17.8358 8.6617C17.9319 8.6617 18.0076 8.57989 17.9994 8.4858ZM11.2046 7.29539V2.04693C12.4931 2.31661 13.6755 2.95471 14.6081 3.88369C15.5429 4.81638 16.1831 6.0027 16.449 7.28107L11.2046 7.29539Z" fill="#808080"/>
</svg>
