<svg width="14" height="10" viewBox="0 0 14 10" fill="none" xmlns="http://www.w3.org/2000/svg">
<path d="M0.833333 10C0.833333 10 0 10 0 9.16667C0 8.33333 0.833333 5.83333 5 5.83333C9.16667 5.83333 10 8.33333 10 9.16667C10 10 9.16667 10 9.16667 10H0.833333ZM5 5C5.66304 5 6.29893 4.73661 6.76777 4.26777C7.23661 3.79893 7.5 3.16304 7.5 2.5C7.5 1.83696 7.23661 1.20107 6.76777 0.732233C6.29893 0.263392 5.66304 0 5 0C4.33696 0 3.70107 0.263392 3.23223 0.732233C2.76339 1.20107 2.5 1.83696 2.5 2.5C2.5 3.16304 2.76339 3.79893 3.23223 4.26777C3.70107 4.73661 4.33696 5 5 5V5Z" fill="white"/>
<path fill-rule="evenodd" clip-rule="evenodd" d="M11.2503 2.5C11.3608 2.5 11.4668 2.5439 11.545 2.62204C11.6231 2.70018 11.667 2.80616 11.667 2.91667V4.16667H12.917C13.0275 4.16667 13.1335 4.21057 13.2116 4.28871C13.2898 4.36685 13.3337 4.47283 13.3337 4.58333C13.3337 4.69384 13.2898 4.79982 13.2116 4.87796C13.1335 4.9561 13.0275 5 12.917 5H11.667V6.25C11.667 6.36051 11.6231 6.46649 11.545 6.54463C11.4668 6.62277 11.3608 6.66667 11.2503 6.66667C11.1398 6.66667 11.0338 6.62277 10.9557 6.54463C10.8776 6.46649 10.8337 6.36051 10.8337 6.25V5H9.58366C9.47315 5 9.36717 4.9561 9.28903 4.87796C9.21089 4.79982 9.16699 4.69384 9.16699 4.58333C9.16699 4.47283 9.21089 4.36685 9.28903 4.28871C9.36717 4.21057 9.47315 4.16667 9.58366 4.16667H10.8337V2.91667C10.8337 2.80616 10.8776 2.70018 10.9557 2.62204C11.0338 2.5439 11.1398 2.5 11.2503 2.5Z" fill="white"/>
</svg>
